<?xml version="1.0" standalone="no"?>
<!DOCTYPE svg PUBLIC "-//W3C//DTD SVG 1.1//EN" "http://www.w3.org/Graphics/SVG/1.1/DTD/svg11.dtd"><svg height="500"
  node-id="1" sillyvg="true" template-height="500" template-width="500" version="1.1" viewBox="0 0 500 500" width="500"
  xmlns="http://www.w3.org/2000/svg" xmlns:xlink="http://www.w3.org/1999/xlink">
  <defs node-id="24">
    <radialGradient cx="250" cy="251" fx="250" fy="251" gradientUnits="userSpaceOnUse" id="SVGID_1_" node-id="3" r="237"
      rev="2" spreadMethod="pad">
      <stop offset="0" stop-color="#70eb8f"></stop>
      <stop offset="1" stop-color="#70eb8f" stop-opacity="0"></stop>
    </radialGradient>
    <linearGradient gradientUnits="userSpaceOnUse" id="SVGID_2_" node-id="11" spreadMethod="pad" x1="251.1673"
      x2="248.7903" y1="415.1356" y2="80.8923">
      <stop offset="0" stop-color="#70eb8f"></stop>
      <stop offset="1" stop-color="#70eb8f"></stop>
    </linearGradient>
  </defs>
  <path
    d="M 487.00 251.00 C 487.00 381.89 380.89 488.00 250.00 488.00 C 119.11 488.00 13.00 381.89 13.00 251.00 C 13.00 120.11 119.11 14.00 250.00 14.00 C 380.89 14.00 487.00 120.11 487.00 251.00 Z"
    fill="url(#SVGID_1_)" fill-rule="nonzero" node-id="41" stroke="none" target-height="474" target-width="474"
    target-x="13" target-y="14"></path>
  <g node-id="71">
    <path
      d="M 250.00 449.23 C 223.24 449.23 197.28 443.99 172.84 433.65 C 149.23 423.67 128.03 409.38 109.83 391.17 C 91.62 372.97 77.33 351.77 67.34 328.16 C 57.01 303.72 51.77 277.76 51.77 251.00 C 51.77 224.24 57.01 198.28 67.34 173.84 C 77.33 150.23 91.62 129.03 109.83 110.83 C 128.03 92.62 149.23 78.33 172.84 68.34 C 197.28 58.01 223.24 52.77 250.00 52.77 C 276.76 52.77 302.72 58.01 327.16 68.34 C 350.77 78.33 371.97 92.62 390.17 110.83 C 408.38 129.03 422.67 150.23 432.65 173.84 C 442.99 198.28 448.23 224.24 448.23 251.00 C 448.23 277.76 442.99 303.72 432.65 328.16 C 422.67 351.77 408.38 372.97 390.17 391.17 C 371.97 409.38 350.77 423.67 327.16 433.65 C 302.72 443.99 276.76 449.23 250.00 449.23 Z M 250.00 53.87 C 141.30 53.87 52.87 142.30 52.87 251.00 C 52.87 359.70 141.30 448.13 250.00 448.13 C 358.70 448.13 447.13 359.70 447.13 251.00 C 447.13 142.30 358.70 53.87 250.00 53.87 Z"
      fill="#70eb8f" fill-opacity="0.3" fill-rule="nonzero" group-id="1" node-id="45" stroke="none"
      target-height="396.466" target-width="396.466" target-x="51.767" target-y="52.767"></path>
  </g>
  <g node-id="72">
    <path
      d="M 250.00 433.84 C 201.16 433.84 155.25 414.82 120.72 380.29 C 86.18 345.75 67.16 299.84 67.16 251.00 C 67.16 202.16 86.18 156.25 120.72 121.72 C 155.25 87.18 201.16 68.16 250.00 68.16 C 298.84 68.16 344.75 87.18 379.29 121.72 C 413.82 156.25 432.84 202.16 432.84 251.00 C 432.84 299.84 413.82 345.75 379.29 380.29 C 344.75 414.82 298.84 433.84 250.00 433.84 Z M 250.00 72.56 C 151.61 72.56 71.56 152.61 71.56 251.00 C 71.56 349.39 151.61 429.44 250.00 429.44 C 348.39 429.44 428.44 349.39 428.44 251.00 C 428.44 152.61 348.39 72.56 250.00 72.56 Z"
      fill="#70eb8f" fill-opacity="0.7" fill-rule="nonzero" group-id="2" node-id="50" stroke="none"
      target-height="365.672" target-width="365.672" target-x="67.164" target-y="68.164"></path>
  </g>
  <path
    d="M 417.13 251.00 C 417.13 343.30 342.30 418.13 250.00 418.13 C 157.70 418.13 82.87 343.30 82.87 251.00 C 82.87 158.70 157.70 83.87 250.00 83.87 C 342.30 83.87 417.13 158.70 417.13 251.00 Z"
    fill="url(#SVGID_2_)" fill-rule="nonzero" node-id="53" stroke="none" target-height="334.252" target-width="334.252"
    target-x="82.874" target-y="83.874"></path>
  <path
    d="M 250.00 83.87 C 241.21 83.87 232.57 84.56 224.15 85.87 C 304.17 98.29 341.41 167.49 341.41 251.00 C 341.41 334.51 304.17 403.71 224.15 416.13 C 232.57 417.44 241.21 418.12 250.00 418.12 C 342.30 418.12 417.13 343.30 417.13 251.00 C 417.13 158.70 342.30 83.87 250.00 83.87 Z"
    fill="#43c85e" fill-rule="nonzero" node-id="55" stroke="none" target-height="334.251" target-width="192.98001"
    target-x="224.146" target-y="83.874"></path>
  <path
    d="M 321.10 157.74 C 321.10 174.06 304.15 187.29 283.24 187.29 C 262.33 187.29 245.38 174.06 245.38 157.74 C 245.38 141.42 262.33 128.19 283.24 128.19 C 304.15 128.19 321.10 141.42 321.10 157.74 Z"
    fill="#43c85e" fill-rule="nonzero" node-id="57" stroke="none" target-height="59.093994" target-width="75.71399"
    target-x="245.383" target-y="128.195"></path>
  <path
    d="M 167.82 318.40 C 167.82 329.62 155.42 338.72 140.12 338.72 C 124.82 338.72 112.42 329.62 112.42 318.40 C 112.42 307.18 124.82 298.09 140.12 298.09 C 155.42 298.09 167.82 307.18 167.82 318.40 Z"
    fill="#43c85e" fill-rule="nonzero" node-id="59" stroke="none" target-height="40.62799" target-width="55.40001"
    target-x="112.422" target-y="298.09"></path>
  <path
    d="M 189.06 187.29 C 189.06 192.52 183.27 196.77 176.13 196.77 C 168.99 196.77 163.21 192.52 163.21 187.29 C 163.21 182.05 168.99 177.81 176.13 177.81 C 183.27 177.81 189.06 182.05 189.06 187.29 Z"
    fill="#43c85e" fill-rule="nonzero" node-id="61" stroke="none" target-height="18.959991" target-width="25.854004"
    target-x="163.205" target-y="177.809"></path>
  <path
    d="M 229.69 376.57 C 229.69 381.81 223.90 386.06 216.76 386.06 C 209.62 386.06 203.83 381.81 203.83 376.57 C 203.83 371.34 209.62 367.10 216.76 367.10 C 223.90 367.10 229.69 371.34 229.69 376.57 Z"
    fill="#43c85e" fill-rule="nonzero" node-id="63" stroke="none" target-height="18.959991" target-width="25.854004"
    target-x="203.833" target-y="367.095"></path>
  <path
    d="M 288.78 389.84 C 288.78 397.30 280.10 403.35 269.39 403.35 C 258.68 403.35 250.00 397.30 250.00 389.84 C 250.00 382.38 258.68 376.33 269.39 376.33 C 280.10 376.33 288.78 382.38 288.78 389.84 Z"
    fill="#43c85e" fill-rule="nonzero" node-id="65" stroke="none" target-height="27.023987" target-width="38.78"
    target-x="250" target-y="376.329"></path>
  <path
    d="M 358.95 243.49 C 358.95 254.27 350.27 263.00 339.56 263.00 C 328.86 263.00 320.18 254.27 320.18 243.49 C 320.18 232.71 328.86 223.98 339.56 223.98 C 350.27 223.98 358.95 232.71 358.95 243.49 Z"
    fill="#43c85e" fill-rule="nonzero" node-id="67" stroke="none" target-height="39.025986" target-width="38.78"
    target-x="320.175" target-y="223.977"></path>
  <path
    d="M 270.48 288.86 C 270.48 291.92 267.10 294.40 262.93 294.40 C 258.75 294.40 255.37 291.92 255.37 288.86 C 255.37 285.80 258.75 283.32 262.93 283.32 C 267.10 283.32 270.48 285.80 270.48 288.86 Z"
    fill="#43c85e" fill-rule="nonzero" node-id="69" stroke="none" target-height="11.080017" target-width="15.110001"
    target-x="255.372" target-y="283.317"></path>
</svg>