<?xml version="1.0" standalone="no"?>
<!DOCTYPE svg PUBLIC "-//W3C//DTD SVG 1.1//EN" "http://www.w3.org/Graphics/SVG/1.1/DTD/svg11.dtd"><svg t="1709558874586"
  class="icon" viewBox="0 0 1024 1024" version="1.1" xmlns="http://www.w3.org/2000/svg" p-id="13168"
  xmlns:xlink="http://www.w3.org/1999/xlink" width="80" height="80">
  <path
    d="M512 0a512 512 0 1 0 512 512A512 512 0 0 0 512 0z m302.762667 468.650667A186.709333 186.709333 0 0 1 709.290667 546.133333h-3.072a86.016 86.016 0 0 1-21.845334 3.413334c-31.744 0-48.469333-21.845333-40.277333-47.104a74.410667 74.410667 0 0 1 46.762667-41.642667A82.944 82.944 0 0 0 750.933333 388.096 90.453333 90.453333 0 0 0 652.629333 307.2a90.794667 90.794667 0 0 0-97.28 81.92v249.514667a165.205333 165.205333 0 0 1-86.698666 141.994666 190.805333 190.805333 0 0 1-97.28 25.258667 176.128 176.128 0 0 1-183.978667-167.253333 154.624 154.624 0 0 1 23.552-82.261334A187.050667 187.050667 0 0 1 316.074667 477.866667a111.957333 111.957333 0 0 1 23.552-3.413334c31.744 0 48.469333 21.845333 40.277333 47.104a78.165333 78.165333 0 0 1-43.690667 41.642667 11.946667 11.946667 0 0 0-6.485333 3.413333 80.554667 80.554667 0 0 0-53.930667 73.728 90.794667 90.794667 0 0 0 97.28 81.92 90.453333 90.453333 0 0 0 96.938667-81.92v-250.538666a165.546667 165.546667 0 0 1 87.04-141.994667 190.464 190.464 0 0 1 96.938667-25.258667 176.469333 176.469333 0 0 1 184.32 167.253334 150.186667 150.186667 0 0 1-23.552 78.848z m0 0"
    fill="#02C451" p-id="13169"></path>
</svg>